<svg id="Capa_1" enable-background="new 0 0 512 512" height="512" viewBox="0 0 512 512" width="512" xmlns="http://www.w3.org/2000/svg"><g fill="white"><path d="m256.002 246.195c33.083 0 59.998-26.916 59.998-60s-26.915-60-59.998-60c-33.085 0-60.002 26.916-60.002 60s26.917 60 60.002 60zm0-90c16.541 0 29.998 13.458 29.998 30s-13.457 30-29.998 30c-16.543 0-30.002-13.458-30.002-30s13.459-30 30.002-30z"/><path d="m446.861 345h-100.391c46.877-44.745 89.53-88.605 89.53-165 0-102.932-77.29-180-179.998-180-102.916 0-180.002 77.297-180.002 180 0 76.395 42.654 120.255 89.532 165h-100.393l-54.855 167h491.432zm-340.861-165c0-86.916 63.085-150 150.002-150 86.915 0 149.998 63.084 149.998 150 0 97.238-82.076 131.678-149.998 215.423-20.412-25.166-42.242-45.939-63.47-66.136-48.346-46.001-86.532-82.336-86.532-149.287zm-42.131 265h108.131v-30h-98.277l13.139-40h109.138v-.674c39.846 39.513 50.626 59.317 60.002 71.126 9.608-12.102 20.036-31.494 59.998-71.124v.672h109.139l13.139 40h-98.278v30h108.131l12.153 37h-408.568z"/></g></svg>
